# xmcd
#
# Track frame offsets:
# 150
# 22993
# 41560
# 65577
# 84974
# 109871
# 129036
# 146870
# 167284
# 190475
# 211695
# 229341
# 248172
# 268560
#
# Disc length: 3851 seconds
#
#
# Revision: 2
# Processed by: cddbd v1.5.2PL0 Copyright (c) Steve Scherf et al.
# Submitted via: FreeRIP 2.93 
#
DISCID=b80f090e
DTITLE=Kenny G - At Last...The Duets Album
DYEAR=1900
DGENRE=Jazz
TTITLE0=(Everything I Do) I Do It For You - Featuring Leann Rimes
TTITLE1=At Last - Featuring Arturo Sandoval
TTITLE2=I Believe I Can Fly - Featuring Yolanda Adams
TTITLE3=Careless Whisper - Featuring Brian Mcknight
TTITLE4=Beautiful - Featuring Chaka Khan
TTITLE5=Pick Up The Pieces - Featuring David Sanborn
TTITLE6=Baby Come To Me - Featuring Daryl Hall
TTITLE7=Misty - Featuring Gladys Knight
TTITLE8=Don`T Know Why - Featuring David Benoit
TTITLE9=The Way You Move - Featuring Earth Wind and Fire
TTITLE10=Sorry Seems To Be The Hardest Word - Featuring Richard Marx
TTITLE11=Alfie - Featuring Burt Bacharach
TTITLE12=The Music That Makes Me Dance - Featuring Barbra Streisand
TTITLE13=Misty Moon - Featuring ¿”«¸¡÷
EXTD=
EXTT0=
EXTT1=
EXTT2=
EXTT3=
EXTT4=
EXTT5=
EXTT6=
EXTT7=
EXTT8=
EXTT9=
EXTT10=
EXTT11=
EXTT12=
EXTT13=
PLAYORDER=
